<svg width="144" height="45" viewBox="0 0 144 45" fill="none" xmlns="http://www.w3.org/2000/svg">
<rect width="144" height="45" rx="22.5" fill="#AB3535"/>
<path d="M27.876 29.104C27.8653 28.9867 27.86 28.8587 27.86 28.72C27.86 28.5813 27.86 28.4213 27.86 28.24C27.86 27.7813 27.8707 27.2373 27.892 26.608C27.9133 25.968 27.9453 25.2907 27.988 24.576C28.0307 23.8507 28.0733 23.1253 28.116 22.4C28.1587 21.664 28.2013 20.96 28.244 20.288C28.2973 19.616 28.3453 19.0133 28.388 18.48C28.1533 18.5547 27.9453 18.624 27.764 18.688L27.348 16C28.5533 15.6587 29.6733 15.4027 30.708 15.232C31.7533 15.0613 32.6973 14.976 33.54 14.976C35.2573 14.976 36.5693 15.3013 37.476 15.952C38.3827 16.6027 38.836 17.5467 38.836 18.784C38.836 19.488 38.6813 20.08 38.372 20.56C38.0627 21.0293 37.6253 21.4187 37.06 21.728C38.4467 22.432 39.14 23.5787 39.14 25.168C39.14 25.872 39.0067 26.464 38.74 26.944C38.484 27.4133 38.1533 27.792 37.748 28.08C37.3427 28.368 36.9107 28.5813 36.452 28.72C36.004 28.8693 35.5773 28.9653 35.172 29.008C34.7773 29.0613 34.468 29.088 34.244 29.088C33.6893 29.088 33.0973 29.0347 32.468 28.928C31.8387 28.8213 31.2253 28.6613 30.628 28.448C30.628 28.6613 30.628 28.864 30.628 29.056L27.876 29.104ZM33.604 17.648C33.22 17.648 32.8147 17.6693 32.388 17.712C31.972 17.744 31.556 17.7973 31.14 17.872C31.076 18.6507 31.012 19.5573 30.948 20.592C31.0867 20.6027 31.2253 20.608 31.364 20.608C31.5133 20.608 31.6627 20.608 31.812 20.608C34.628 20.608 36.036 20.032 36.036 18.88C36.036 18.496 35.8173 18.1973 35.38 17.984C34.9533 17.76 34.3613 17.648 33.604 17.648ZM32.18 23.136C31.956 23.136 31.7267 23.136 31.492 23.136C31.268 23.136 31.0387 23.1413 30.804 23.152C30.7827 23.6213 30.7613 24.0907 30.74 24.56C30.7293 25.0293 30.7133 25.4933 30.692 25.952C31.2893 26.1333 31.876 26.2667 32.452 26.352C33.028 26.4267 33.524 26.464 33.94 26.464C34.8253 26.464 35.46 26.3573 35.844 26.144C36.228 25.92 36.42 25.5573 36.42 25.056C36.42 24.4373 36.052 23.9627 35.316 23.632C34.5907 23.3013 33.5453 23.136 32.18 23.136ZM45.3481 29.312C44.4948 29.312 43.7481 29.1733 43.1081 28.896C42.4788 28.6187 41.9561 28.24 41.5401 27.76C41.1241 27.2693 40.8148 26.7093 40.6121 26.08C40.4095 25.4507 40.3081 24.7893 40.3081 24.096C40.3081 23.392 40.4308 22.7413 40.6761 22.144C40.9321 21.536 41.2788 21.008 41.7161 20.56C42.1641 20.112 42.6868 19.7653 43.2841 19.52C43.8815 19.264 44.5321 19.136 45.2361 19.136C45.9721 19.136 46.6548 19.264 47.2841 19.52C47.9135 19.776 48.4628 20.1333 48.9321 20.592C49.4015 21.0507 49.7641 21.5893 50.0201 22.208C50.2868 22.8267 50.4201 23.4987 50.4201 24.224C50.4201 25.8347 49.9775 27.088 49.0921 27.984C48.2068 28.8693 46.9588 29.312 45.3481 29.312ZM45.3321 26.72C46.1108 26.72 46.7028 26.5013 47.1081 26.064C47.5241 25.6267 47.7321 24.9973 47.7321 24.176C47.7321 23.44 47.5081 22.848 47.0601 22.4C46.6121 21.952 46.0255 21.728 45.3001 21.728C44.8628 21.728 44.4628 21.8453 44.1001 22.08C43.7375 22.304 43.4441 22.608 43.2201 22.992C43.0068 23.3653 42.9001 23.7813 42.9001 24.24C42.9001 24.6453 42.9801 25.04 43.1401 25.424C43.3108 25.808 43.5775 26.1227 43.9401 26.368C44.3028 26.6027 44.7668 26.72 45.3321 26.72ZM56.4263 29.312C55.5729 29.312 54.8263 29.1733 54.1863 28.896C53.5569 28.6187 53.0343 28.24 52.6183 27.76C52.2023 27.2693 51.8929 26.7093 51.6903 26.08C51.4876 25.4507 51.3863 24.7893 51.3863 24.096C51.3863 23.392 51.5089 22.7413 51.7543 22.144C52.0103 21.536 52.3569 21.008 52.7943 20.56C53.2423 20.112 53.7649 19.7653 54.3623 19.52C54.9596 19.264 55.6103 19.136 56.3143 19.136C57.0503 19.136 57.7329 19.264 58.3623 19.52C58.9916 19.776 59.5409 20.1333 60.0103 20.592C60.4796 21.0507 60.8423 21.5893 61.0983 22.208C61.3649 22.8267 61.4983 23.4987 61.4983 24.224C61.4983 25.8347 61.0556 27.088 60.1703 27.984C59.2849 28.8693 58.0369 29.312 56.4263 29.312ZM56.4103 26.72C57.1889 26.72 57.7809 26.5013 58.1863 26.064C58.6023 25.6267 58.8103 24.9973 58.8103 24.176C58.8103 23.44 58.5863 22.848 58.1383 22.4C57.6903 21.952 57.1036 21.728 56.3783 21.728C55.9409 21.728 55.5409 21.8453 55.1783 22.08C54.8156 22.304 54.5223 22.608 54.2983 22.992C54.0849 23.3653 53.9783 23.7813 53.9783 24.24C53.9783 24.6453 54.0583 25.04 54.2183 25.424C54.3889 25.808 54.6556 26.1227 55.0182 26.368C55.3809 26.6027 55.8449 26.72 56.4103 26.72ZM62.8644 29.168C62.8217 28.656 62.7844 28 62.7524 27.2C62.731 26.4 62.7204 25.5307 62.7204 24.592C62.7204 23.76 62.7257 22.9013 62.7364 22.016C62.7577 21.1307 62.7844 20.2613 62.8164 19.408C62.859 18.544 62.9017 17.7387 62.9444 16.992C62.9977 16.2347 63.0564 15.5733 63.1204 15.008L65.9044 15.2C65.755 16.288 65.6377 17.392 65.5524 18.512C65.4777 19.6213 65.4297 20.752 65.4084 21.904C66.0057 21.488 66.699 21.0507 67.4884 20.592C68.2884 20.1227 69.2484 19.5947 70.3684 19.008L71.8724 21.52C70.7204 21.8827 69.7017 22.2987 68.8164 22.768C67.931 23.2267 67.2057 23.6907 66.6404 24.16C66.5337 24.2347 66.4644 24.288 66.4324 24.32C66.4004 24.352 66.3844 24.3733 66.3844 24.384C66.3844 24.448 66.5604 24.5653 66.9124 24.736C67.3817 24.9813 67.867 25.2213 68.3684 25.456C68.8697 25.6907 69.4297 25.9307 70.0484 26.176C70.667 26.4107 71.3764 26.6613 72.1764 26.928L71.0724 29.296C70.1017 29.008 69.131 28.6453 68.1604 28.208C67.1897 27.7707 66.3097 27.328 65.5204 26.88C65.531 27.2427 65.547 27.6107 65.5684 27.984C65.6004 28.3573 65.627 28.7307 65.6484 29.104L62.8644 29.168ZM76.8864 29.168C76.8864 27.504 76.9077 26.0053 76.9504 24.672C77.0037 23.328 77.0677 22.1067 77.1424 21.008C77.2277 19.8987 77.3184 18.8693 77.4144 17.92C77.521 16.96 77.6224 16.0427 77.7184 15.168L80.4704 15.28C80.4277 15.6107 80.3797 15.968 80.3264 16.352C80.689 16.8427 81.0837 17.4027 81.5104 18.032C81.9477 18.6613 82.3904 19.328 82.8384 20.032C83.297 20.7253 83.745 21.424 84.1824 22.128C84.6197 22.8213 85.0357 23.488 85.4304 24.128C85.825 24.7573 86.1717 25.3227 86.4704 25.824C86.545 25.088 86.5824 24.0533 86.5824 22.72C86.5824 22.0373 86.5717 21.3333 86.5504 20.608C86.529 19.8827 86.5024 19.1893 86.4704 18.528C86.4384 17.856 86.3957 17.2587 86.3424 16.736C86.289 16.2027 86.2304 15.7867 86.1664 15.488L89.1744 15.12C89.1957 15.6427 89.2064 16.3307 89.2064 17.184C89.217 18.0267 89.2224 18.9227 89.2224 19.872C89.2224 20.7147 89.217 21.5627 89.2064 22.416C89.1957 23.2587 89.1744 24.0373 89.1424 24.752C89.1104 25.4667 89.0624 26.0587 88.9984 26.528C88.881 27.4453 88.6464 28.1227 88.2944 28.56C87.9424 28.9973 87.4464 29.216 86.8064 29.216C86.2837 29.216 85.8037 29.0347 85.3664 28.672C84.9397 28.3093 84.4757 27.712 83.9744 26.88C83.633 26.304 83.233 25.6427 82.7744 24.896C82.3264 24.1387 81.857 23.3653 81.3664 22.576C80.8864 21.7867 80.4224 21.0347 79.9744 20.32C79.889 21.568 79.825 22.816 79.7824 24.064C79.7397 25.3013 79.7184 26.4213 79.7184 27.424C79.7184 27.744 79.7184 28.0427 79.7184 28.32C79.7184 28.608 79.7237 28.8747 79.7344 29.12L76.8864 29.168ZM95.895 29.312C95.0417 29.312 94.295 29.1733 93.655 28.896C93.0257 28.6187 92.503 28.24 92.087 27.76C91.671 27.2693 91.3617 26.7093 91.159 26.08C90.9563 25.4507 90.855 24.7893 90.855 24.096C90.855 23.392 90.9777 22.7413 91.223 22.144C91.479 21.536 91.8257 21.008 92.263 20.56C92.711 20.112 93.2337 19.7653 93.831 19.52C94.4283 19.264 95.079 19.136 95.783 19.136C96.519 19.136 97.2017 19.264 97.831 19.52C98.4603 19.776 99.0097 20.1333 99.479 20.592C99.9483 21.0507 100.311 21.5893 100.567 22.208C100.834 22.8267 100.967 23.4987 100.967 24.224C100.967 25.8347 100.524 27.088 99.639 27.984C98.7537 28.8693 97.5057 29.312 95.895 29.312ZM95.879 26.72C96.6577 26.72 97.2497 26.5013 97.655 26.064C98.071 25.6267 98.279 24.9973 98.279 24.176C98.279 23.44 98.055 22.848 97.607 22.4C97.159 21.952 96.5723 21.728 95.847 21.728C95.4097 21.728 95.0097 21.8453 94.647 22.08C94.2843 22.304 93.991 22.608 93.767 22.992C93.5537 23.3653 93.447 23.7813 93.447 24.24C93.447 24.6453 93.527 25.04 93.687 25.424C93.8577 25.808 94.1243 26.1227 94.487 26.368C94.8497 26.6027 95.3137 26.72 95.879 26.72ZM105.773 29.312C104.888 29.312 104.136 28.624 103.517 27.248C103.304 26.7573 103.117 26.2187 102.957 25.632C102.797 25.0453 102.658 24.448 102.541 23.84C102.434 23.232 102.344 22.6507 102.269 22.096C102.205 21.5307 102.152 21.0347 102.109 20.608C102.077 20.1707 102.05 19.84 102.029 19.616L104.653 19.008C104.781 21.4293 104.973 23.2693 105.229 24.528C105.496 25.7867 105.698 26.416 105.837 26.416C105.912 26.416 106.002 26.2667 106.109 25.968C106.226 25.6693 106.354 25.2747 106.493 24.784C106.632 24.2827 106.765 23.7333 106.893 23.136C107.021 22.5387 107.133 21.936 107.229 21.328C107.101 20.5493 107.016 19.9307 106.973 19.472L109.677 19.376V19.568C109.677 20.0053 109.709 20.5173 109.773 21.104C109.837 21.6907 109.917 22.2987 110.013 22.928C110.109 23.5467 110.21 24.1227 110.317 24.656C110.434 25.1893 110.546 25.6213 110.653 25.952C110.76 26.2827 110.85 26.448 110.925 26.448C110.989 26.448 111.08 26.304 111.197 26.016C111.314 25.728 111.442 25.3333 111.581 24.832C111.73 24.3307 111.88 23.76 112.029 23.12C112.178 22.4693 112.322 21.7867 112.461 21.072C112.6 20.3467 112.712 19.6267 112.797 18.912L115.437 19.472C115.256 20.4853 115.037 21.4933 114.781 22.496C114.536 23.488 114.274 24.4107 113.997 25.264C113.72 26.1067 113.448 26.816 113.181 27.392C112.584 28.6613 111.842 29.296 110.957 29.296C110.669 29.296 110.338 29.2053 109.965 29.024C109.602 28.8533 109.266 28.4907 108.957 27.936C108.85 27.7333 108.744 27.488 108.637 27.2C108.53 26.912 108.429 26.592 108.333 26.24C108.205 26.6347 108.077 26.9867 107.949 27.296C107.384 28.64 106.658 29.312 105.773 29.312Z" fill="white"/>
</svg>
