<svg width="100" height="83" viewBox="0 0 100 83" fill="none" xmlns="http://www.w3.org/2000/svg">
<path d="M34.754 17.827C37.0039 11.7205 45.6407 11.7205 47.8907 17.827L51.3703 27.271C52.0766 29.188 53.5852 30.7008 55.5002 31.4125L64.9882 34.9384C71.0703 37.1987 71.0703 45.8013 64.9882 48.0616L55.5002 51.5875C53.5852 52.2992 52.0766 53.812 51.3703 55.729L47.8907 65.173C45.6407 71.2795 37.0039 71.2795 34.754 65.173L31.2743 55.729C30.568 53.812 29.0595 52.2992 27.1444 51.5875L17.6564 48.0616C11.5743 45.8013 11.5743 37.1987 17.6564 34.9384L27.1444 31.4125C29.0595 30.7008 30.568 29.188 31.2743 27.271L34.754 17.827Z" fill="#E99548"/>
<path d="M76.8022 36.4214L75.4431 32.7327C72.3896 24.4453 60.6682 24.4452 57.6147 32.7327L56.2557 36.4214C55.8016 37.6537 54.8318 38.6262 53.6007 39.0837L49.8434 40.48C41.5891 43.5475 41.5891 55.2225 49.8434 58.29L53.6007 59.6863C54.8318 60.1438 55.8016 61.1163 56.2557 62.3487L57.6147 66.0373C60.6682 74.3248 72.3896 74.3248 75.4431 66.0373L76.8022 62.3487C77.2562 61.1163 78.226 60.1438 79.4571 59.6863L83.2144 58.29C91.4687 55.2225 91.4687 43.5475 83.2144 40.48L79.4571 39.0837C78.226 38.6262 77.2562 37.6537 76.8022 36.4214Z" fill="#AB3535" stroke="white" stroke-width="5" stroke-linejoin="round"/>
</svg>
