<svg width="104" height="86" viewBox="0 0 104 86" fill="none" xmlns="http://www.w3.org/2000/svg">
<path d="M36.4098 17.753C38.6642 11.657 47.2862 11.657 49.5406 17.753L53.466 28.3672C54.1746 30.2834 55.685 31.7943 57.6009 32.5037L68.2203 36.4355C74.313 38.6913 74.313 47.3087 68.2203 49.5645L57.6009 53.4963C55.685 54.2057 54.1746 55.7166 53.466 57.6328L49.5406 68.247C47.2862 74.343 38.6642 74.343 36.4098 68.247L32.4844 57.6328C31.7758 55.7166 30.2654 54.2057 28.3495 53.4963L17.7301 49.5645C11.6374 47.3087 11.6374 38.6913 17.7301 36.4355L28.3495 32.5037C30.2654 31.7943 31.7758 30.2834 32.4844 28.3672L36.4098 17.753Z" fill="#E99548"/>
<path d="M79.8202 37.8767L78.1003 33.2259C75.0407 24.9528 63.3394 24.9528 60.2798 33.2259L58.5599 37.8767C58.1043 39.1085 57.1333 40.0798 55.9017 40.5359L51.2422 42.261C42.9735 45.3225 42.9735 57.0175 51.2422 60.079L55.9017 61.8041C57.1333 62.2602 58.1043 63.2315 58.5599 64.4633L60.2798 69.1141C63.3394 77.3872 75.0407 77.3872 78.1003 69.1141L79.8202 64.4633C80.2758 63.2315 81.2467 62.2602 82.4784 61.8041L87.1379 60.079C95.4065 57.0175 95.4066 45.3225 87.1379 42.261L82.4784 40.5359C81.2467 40.0798 80.2758 39.1085 79.8202 37.8767Z" fill="#AB3535" stroke="white" stroke-width="5" stroke-linejoin="round"/>
</svg>
